<svg xmlns="http://www.w3.org/2000/svg" version="1.1" xmlns:xlink="http://www.w3.org/1999/xlink" xmlns:svgjs="http://svgjs.dev/svgjs" width="2000" height="813" viewBox="0 0 2000 813"><g transform="matrix(1,0,0,1,-1.2121212121212466,-0.3068053578480203)"><svg viewBox="0 0 396 161" data-background-color="#1c1f2e" preserveAspectRatio="xMidYMid meet" height="813" width="2000" xmlns="http://www.w3.org/2000/svg" xmlns:xlink="http://www.w3.org/1999/xlink"><g id="tight-bounds" transform="matrix(1,0,0,1,0.2400000000000091,0.06075727258736663)"><svg viewBox="0 0 395.52 160.87848545482527" height="160.87848545482527" width="395.52"><g><svg viewBox="0 0 395.52 160.87848545482527" height="160.87848545482527" width="395.52"><g><svg viewBox="0 0 395.52 160.87848545482527" height="160.87848545482527" width="395.52"><g id="textblocktransform"><svg viewBox="0 0 395.52 160.87848545482527" height="160.87848545482527" width="395.52" id="textblock"><g><svg viewBox="0 0 395.52 160.87848545482527" height="160.87848545482527" width="395.52"><g transform="matrix(1,0,0,1,0,0)"><svg width="395.52" viewBox="1.130057803468208 -38.55 121.8099421965318 49.55" height="160.87848545482527" data-palette-color="#c9ddff"><g class="wordmark-text-0" data-fill-palette-color="primary" id="text-0"><path d="M18.65 0.15L18.65 0.15Q15.3 0.15 13.13-1.15 10.95-2.45 9.58-4.9 8.2-7.35 7.1-10.85L7.1-10.85 1.5-28.8Q0.7-31.3 1.63-33.18 2.55-35.05 4.95-35.75L4.95-35.75Q7.15-36.4 8.95-35.48 10.75-34.55 11.4-32.35L11.4-32.35 16.85-15.05Q17.7-12.25 19.03-11.33 20.35-10.4 21.9-10.9L21.9-10.9Q23.5-11.35 23.95-12.73 24.4-14.1 23.7-16.9L23.7-16.9Q22.55-21.9 22.15-24.75 21.75-27.6 21.75-29.25L21.75-29.25Q21.75-32.05 23.28-34.08 24.8-36.1 28-36.1L28-36.1Q31.15-36.1 32.58-34.08 34-32.05 34-29.25L34-29.25Q34-27.6 33.55-25.85 33.1-24.1 32.5-22.25L32.5-22.25 28.05-8.8Q27.15-6.1 26.08-4.08 25-2.05 23.28-0.95 21.55 0.15 18.65 0.15ZM36.3-31.95L36.3-31.95Q36.3-34.1 37.62-35.43 38.95-36.75 41.3-36.75L41.3-36.75Q43.8-36.75 45.02-35.45 46.25-34.15 46.25-32L46.25-32Q46.25-29.9 45.02-28.63 43.8-27.35 41.3-27.35L41.3-27.35Q38.85-27.35 37.57-28.63 36.3-29.9 36.3-31.95ZM41.3 0L41.3 0Q38.95 0 37.8-1.3 36.65-2.6 36.65-4.55L36.65-4.55 36.65-21.65Q36.65-23.8 37.8-25.05 38.95-26.3 41.3-26.3L41.3-26.3Q43.65-26.3 44.82-25.05 46-23.8 46-21.75L46-21.75 46-4.55Q46-2.6 44.77-1.3 43.55 0 41.3 0ZM57.65 0L57.65 0Q48.55 0 48.55-13.4L48.55-13.4Q48.55-19.2 50.8-22.68 53.05-26.15 57.55-26.15L57.55-26.15Q60-26.15 61.52-25.15 63.05-24.15 63.92-22.43 64.8-20.7 65.2-18.45L65.2-18.45 65.34-18.5 65.34-33.65Q65.34-35.7 66.57-37.13 67.8-38.55 70.15-38.55L70.15-38.55Q72.45-38.55 73.57-37.13 74.7-35.7 74.7-33.55L74.7-33.55 74.7-11.05Q74.7-9.35 74.97-7.93 75.25-6.5 75.4-5.1L75.4-5.1Q75.55-3.2 74.62-1.83 73.7-0.45 71.34-0.05L71.34-0.05Q68.3 0.45 66.82-1.1 65.34-2.65 65.34-5.7L65.34-5.7 65.34-7.55 64.4-7.55Q64.4-3.9 62.57-1.95 60.75 0 57.65 0ZM56.9-13.85L56.9-13.85Q56.9-12.3 57.85-11.55 58.8-10.8 61.25-10.8L61.25-10.8Q63.75-10.8 64.7-11.55 65.65-12.3 65.65-13.85L65.65-13.85Q65.65-15.45 64.72-16.18 63.8-16.9 61.3-16.9L61.3-16.9Q58.8-16.9 57.85-16.18 56.9-15.45 56.9-13.85ZM77.59-31.95L77.59-31.95Q77.59-34.1 78.92-35.43 80.24-36.75 82.59-36.75L82.59-36.75Q85.09-36.75 86.32-35.45 87.54-34.15 87.54-32L87.54-32Q87.54-29.9 86.32-28.63 85.09-27.35 82.59-27.35L82.59-27.35Q80.14-27.35 78.87-28.63 77.59-29.9 77.59-31.95ZM82.59 0L82.59 0Q80.24 0 79.09-1.3 77.94-2.6 77.94-4.55L77.94-4.55 77.94-21.65Q77.94-23.8 79.09-25.05 80.24-26.3 82.59-26.3L82.59-26.3Q84.94-26.3 86.12-25.05 87.29-23.8 87.29-21.75L87.29-21.75 87.29-4.55Q87.29-2.6 86.07-1.3 84.84 0 82.59 0ZM89.89-18.95L89.89-18.95Q89.89-24.1 91.79-28.1 93.69-32.1 97.39-34.4 101.09-36.7 106.44-36.7L106.44-36.7Q111.79-36.7 115.47-34.4 119.14-32.1 121.04-28.1 122.94-24.1 122.94-18.95L122.94-18.95Q122.94-14.4 121.49-10.78 120.04-7.15 117.22-4.78 114.39-2.4 110.24-1.6L110.24-1.6Q110.49-0.6 111.39-0.2 112.29 0.2 114.04 0.2L114.04 0.2Q115.64 0.2 116.97 0.7 118.29 1.2 119.12 2.38 119.94 3.55 119.94 5.6L119.94 5.6Q119.94 7.6 119.12 8.8 118.29 10 116.97 10.5 115.64 11 114.04 11L114.04 11Q111.14 11 109.24 9.78 107.34 8.55 106.42 6.45 105.49 4.35 105.49 1.85L105.49 1.85 105.49-1.25Q100.44-1.5 96.97-3.8 93.49-6.1 91.69-10 89.89-13.9 89.89-18.95ZM106.44-14L106.44-14Q110.79-14 112.97-14.8 115.14-15.6 115.89-16.9 116.64-18.2 116.64-19.7L116.64-19.7Q116.64-21.25 115.89-22.48 115.14-23.7 112.97-24.45 110.79-25.2 106.44-25.2L106.44-25.2Q102.09-25.2 99.89-24.45 97.69-23.7 96.94-22.48 96.19-21.25 96.19-19.7L96.19-19.7Q96.19-18.2 96.94-16.9 97.69-15.6 99.89-14.8 102.09-14 106.44-14Z" fill="#c9ddff" data-fill-palette-color="primary"></path></g></svg></g></svg></g></svg></g></svg></g></svg></g><defs></defs></svg><rect width="395.52" height="160.87848545482527" fill="none" stroke="none" visibility="hidden"></rect></g></svg></g></svg>